<?xml version="1.0" encoding="utf-8"?>
<!-- Generator: Adobe Illustrator 23.1.0, SVG Export Plug-In . SVG Version: 6.00 Build 0)  -->
<svg version="1.1" id="Calque_1" xmlns="http://www.w3.org/2000/svg" xmlns:xlink="http://www.w3.org/1999/xlink" x="0px" y="0px"
	 viewBox="0 0 81 81" style="enable-background:new 0 0 81 81;" xml:space="preserve">
<style type="text/css">
	.st0{fill:#FFFFFF;}
</style>
<path class="st0" d="M40.5,81C18.2,81,0,62.8,0,40.5S18.2,0,40.5,0S81,18.2,81,40.5S62.8,81,40.5,81z M40.5,6C21.5,6,6,21.5,6,40.5
	S21.5,75,40.5,75S75,59.5,75,40.5S59.5,6,40.5,6z"/>
<g>
	<polygon class="st0" points="40.5,63.3 16.1,46 19.6,41.1 40.5,55.9 61.4,41.1 64.9,46 	"/>
	<polygon class="st0" points="40.5,46.2 16.1,28.9 19.6,24 40.5,38.8 61.4,24 64.9,28.9 	"/>
</g>
</svg>
