<?xml version="1.0" encoding="utf-8"?>
<!-- Generator: Adobe Illustrator 23.1.0, SVG Export Plug-In . SVG Version: 6.00 Build 0)  -->
<svg version="1.1" id="Calque_1" xmlns="http://www.w3.org/2000/svg" xmlns:xlink="http://www.w3.org/1999/xlink" x="0px" y="0px"
	 viewBox="0 0 952.4 5.4" style="enable-background:new 0 0 952.4 5.4;" xml:space="preserve">
<style type="text/css">
	.st0{fill:#FFFFFF;}
</style>
<path class="st0" d="M0,2.7l29.8-0.4L59.5,2l59.5-0.6l119.1-0.7c39.7-0.3,79.4-0.3,119.1-0.5L476.2,0l119.1,0.1l59.5,0.2l29.8,0.1
	l29.8,0.2l119.1,0.7L892.9,2l29.8,0.3l29.8,0.4l-29.8,0.4l-29.8,0.3L833.4,4L714.3,4.7l-29.8,0.2L654.8,5l-59.5,0.2L476.2,5.4
	L357.2,5.2C317.5,5.1,277.8,5,238.1,4.7L119.1,4L59.5,3.4L29.8,3.1L0,2.7z"/>
</svg>
